<svg width="50" height="50" viewBox="0 0 50 50" fill="none" xmlns="http://www.w3.org/2000/svg">
<circle cx="25" cy="25" r="24.5" stroke="#304354"/>
<circle cx="25" cy="25" r="19" fill="#52B946"/>
<path fill-rule="evenodd" clip-rule="evenodd" d="M25.0001 15C21.0475 15 17.8315 18.2158 17.8315 22.1686C17.8315 26.1214 21.0475 29.3372 25.0001 29.3372C28.9527 29.3372 32.1687 26.1214 32.1687 22.1686C32.1687 18.2158 28.9527 15 25.0001 15ZM28.4881 21.6419L27.217 22.881L27.5174 24.6312C27.6092 25.1655 27.0462 25.567 26.5716 25.3181L25.0001 24.492L23.4286 25.318C22.9513 25.5687 22.3915 25.1625 22.4828 24.6311L22.7832 22.881L21.5121 21.6418C21.1258 21.2652 21.3402 20.6077 21.8732 20.5303L23.6302 20.2751L24.4159 18.6832C24.6537 18.1997 25.3464 18.1993 25.5844 18.6832L26.3702 20.2751L28.1271 20.5303C28.6601 20.6077 28.8745 21.2652 28.4881 21.6419ZM34.2798 31.8699L31.9862 26.9514C30.7198 28.7954 28.7424 30.1085 26.4534 30.5067L28.3734 34.6239C28.6189 35.1508 29.3786 35.1156 29.5763 34.5715L30.5604 31.8683L30.7632 31.7737L33.4665 32.7578C34.009 32.9568 34.5249 32.3947 34.2798 31.8699ZM15.7203 31.8699L18.0139 26.9514C19.2804 28.7955 21.2577 30.1085 23.5467 30.5066L21.6267 34.6239C21.3807 35.1518 20.6211 35.1144 20.4238 34.5715L19.4397 31.8681L19.2369 31.7736L16.5336 32.7577C15.9947 32.9562 15.474 32.3971 15.7203 31.8699Z" fill="#1A344B"/>
</svg>
