<svg width="50" height="50" viewBox="0 0 50 50" fill="none" xmlns="http://www.w3.org/2000/svg">
<circle cx="25" cy="25" r="24.5" stroke="#304354"/>
<circle cx="25" cy="25" r="19" fill="#52B946"/>
<path d="M21.2927 27.5625H28.7073C28.4744 26.6499 28.266 25.7108 28.0828 24.75H21.9172C21.734 25.7108 21.5255 26.6499 21.2927 27.5625Z" fill="#1A344B"/>
<path d="M33.4213 36L30.6088 28.9688H19.3911L16.5786 36H21.4843V35.2969C21.4843 33.3584 23.0614 31.7812 24.9999 31.7812C26.9385 31.7812 28.5156 33.3584 28.5156 35.2969V36H33.4213Z" fill="#1A344B"/>
<path d="M29.1233 21.9375H27.6268C27.2856 19.4079 27.1095 16.771 27.1095 14.1094V13.4062H25.7032V12H24.297V13.4062H22.8907V14.1094C22.8907 16.771 22.7146 19.4079 22.3734 21.9375H20.877V23.3438H29.1233V21.9375H29.1233Z" fill="#1A344B"/>
</svg>
