<svg width="50" height="50" viewBox="0 0 50 50" fill="none" xmlns="http://www.w3.org/2000/svg">
<circle cx="25" cy="25" r="24.5" stroke="#304354"/>
<circle cx="25" cy="25" r="19" fill="#52B946"/>
<path d="M25 15C19.4861 15 15 19.4861 15 25C15 30.5139 19.4861 35 25 35C30.5139 35 35 30.5139 35 25C35 19.4861 30.5139 15 25 15ZM25 33.3333C22.7298 33.3333 20.6711 32.4186 19.1667 30.9412V29.5833C19.1667 29.187 19.3441 28.9319 19.5492 28.6364C19.7604 28.3325 20 27.9879 20 27.5C20 26.7053 19.2826 26.6248 18.8969 26.5816C18.621 26.5507 18.3606 26.5214 18.2113 26.3721C18.0981 26.2589 17.985 26.0535 17.8654 25.8362C17.6279 25.404 17.3059 24.8325 16.6929 24.4824C16.9623 20.1287 20.5796 16.6667 25 16.6667C25.2287 16.6667 25.4536 16.6829 25.6777 16.701C25.6321 16.731 25.5762 16.7513 25.5387 16.7887C25.4578 16.8697 25.4134 16.9808 25.4167 17.0955C25.4204 17.2099 25.4708 17.3181 25.5562 17.3946C25.706 17.5277 25.7349 17.5948 25.7406 17.5948C25.7312 17.6147 25.6547 17.7454 25.2283 17.9618C24.5243 18.3187 23.7114 19.0491 23.5905 19.8092C23.5352 20.1542 23.6353 20.4745 23.8721 20.7113C23.9502 20.7894 24.056 20.8334 24.1667 20.8334C24.7453 20.8334 25.1925 20.6193 25.625 20.4126C26.0689 20.2006 26.4884 20 27.0833 20C28.7187 20 30 20.3662 30 20.8333C30 21.0046 29.9467 21.0571 29.9264 21.0766C29.7217 21.278 29.0247 21.265 28.4119 21.2557C28.2495 21.2528 28.0835 21.25 27.9167 21.25C27.3511 21.25 27.1757 21.1673 26.9727 21.0713C26.7362 20.9598 26.4685 20.8333 25.8333 20.8333C25.1465 20.8333 23.87 20.9574 23.0387 21.7887C22.3588 22.4682 22.4308 23.2812 22.478 23.8187C22.489 23.9424 22.5 24.0596 22.5 24.1666C22.5 24.9873 23.3386 25.4166 24.1667 25.4166C25.4403 25.4166 26.5414 25.6542 26.6667 25.8333C26.6667 26.2996 26.8054 26.6182 26.9169 26.8737C27.0097 27.0873 27.0833 27.2558 27.0833 27.4999C27.0833 27.6887 27.0524 27.729 26.969 27.8364C26.8099 28.0432 26.6666 28.2682 26.6666 28.7499C26.6666 29.6268 27.511 30.5887 27.607 30.6957C27.6871 30.7845 27.8003 30.8333 27.9166 30.8333C27.9512 30.8333 27.9858 30.8292 28.02 30.8203C28.2654 30.7572 30.4166 30.1652 30.4166 28.75C30.4166 28.3064 30.5546 28.1868 30.7637 28.0053C30.9688 27.8271 31.25 27.5834 31.25 27.0833C31.25 26.7492 31.8428 25.887 32.3921 25.2795C32.4699 25.1936 32.5085 25.0789 32.4984 24.9633C32.4882 24.8478 32.4304 24.7416 32.3389 24.6707C32.015 24.4197 31.1206 23.6022 30.8211 22.8092C30.9908 22.8979 31.2032 23.0423 31.3721 23.2112C31.5108 23.3508 31.6968 23.4175 31.9084 23.409C32.2458 23.3897 32.6467 23.1231 33.0266 22.7905C33.221 23.4954 33.3334 24.2341 33.3334 25C33.3333 29.5951 29.5951 33.3333 25 33.3333Z" fill="#1A344B"/>
</svg>
