<svg width="150" height="73" viewBox="0 0 150 73" fill="none" xmlns="http://www.w3.org/2000/svg">
<path d="M76.4992 0C67.7709 0 60.6692 7.10176 60.6692 15.8309C60.6692 18.1078 61.1352 20.2817 62.0536 22.2928C66.0116 30.9537 73.6 40.0978 75.832 42.6937C75.9993 42.8878 76.2431 42.9996 76.4996 42.9996C76.7562 42.9996 77 42.8878 77.1672 42.6937C79.3983 40.0982 86.9868 30.9546 90.9461 22.2928C91.8649 20.2817 92.3305 18.1078 92.3305 15.8309C92.3296 7.10176 85.2279 0 76.4992 0ZM76.4992 24.0535C71.9652 24.0535 68.2761 20.3644 68.2761 15.8304C68.2761 11.296 71.9652 7.60695 76.4992 7.60695C81.0332 7.60695 84.7222 11.296 84.7222 15.8304C84.7227 20.3644 81.0336 24.0535 76.4992 24.0535Z" fill="#F37900"/>
<path d="M8.82812 63.8418C8.70508 64.8945 8.31543 65.708 7.65918 66.2822C7.00749 66.8519 6.13932 67.1367 5.05469 67.1367C3.87891 67.1367 2.93555 66.7152 2.22461 65.8721C1.51823 65.029 1.16504 63.901 1.16504 62.4883V61.5312C1.16504 60.6061 1.3291 59.7926 1.65723 59.0908C1.98991 58.389 2.45931 57.8512 3.06543 57.4775C3.67155 57.0993 4.37337 56.9102 5.1709 56.9102C6.22819 56.9102 7.07585 57.2064 7.71387 57.7988C8.35189 58.3867 8.72331 59.2025 8.82812 60.2461H7.50879C7.39486 59.4531 7.14648 58.8789 6.76367 58.5234C6.38542 58.168 5.85449 57.9902 5.1709 57.9902C4.33236 57.9902 3.67383 58.3001 3.19531 58.9199C2.72135 59.5397 2.48438 60.4215 2.48438 61.5654V62.5293C2.48438 63.6094 2.70996 64.4684 3.16113 65.1064C3.6123 65.7445 4.24349 66.0635 5.05469 66.0635C5.78385 66.0635 6.34212 65.8994 6.72949 65.5713C7.12142 65.2386 7.38118 64.6621 7.50879 63.8418H8.82812ZM18.2822 62.3447C18.2822 63.32 18.1182 64.1722 17.79 64.9014C17.4619 65.626 16.9971 66.1797 16.3955 66.5625C15.7939 66.9453 15.0921 67.1367 14.29 67.1367C13.5062 67.1367 12.8112 66.9453 12.2051 66.5625C11.599 66.1751 11.1273 65.626 10.79 64.915C10.4574 64.1995 10.2865 63.3724 10.2773 62.4336V61.7158C10.2773 60.7588 10.4437 59.9134 10.7764 59.1797C11.109 58.446 11.5785 57.8854 12.1846 57.498C12.7952 57.1061 13.4925 56.9102 14.2764 56.9102C15.0739 56.9102 15.7757 57.1038 16.3818 57.4912C16.9925 57.874 17.4619 58.4323 17.79 59.166C18.1182 59.8952 18.2822 60.7451 18.2822 61.7158V62.3447ZM16.9766 61.7021C16.9766 60.5218 16.7396 59.6172 16.2656 58.9883C15.7917 58.3548 15.1286 58.0381 14.2764 58.0381C13.4469 58.0381 12.793 58.3548 12.3145 58.9883C11.8405 59.6172 11.5967 60.4922 11.583 61.6133V62.3447C11.583 63.4886 11.8223 64.3887 12.3008 65.0449C12.7839 65.6966 13.4469 66.0225 14.29 66.0225C15.1377 66.0225 15.7939 65.7148 16.2588 65.0996C16.7236 64.4798 16.9629 63.5934 16.9766 62.4404V61.7021ZM27.9072 62.3447C27.9072 63.32 27.7432 64.1722 27.415 64.9014C27.0869 65.626 26.6221 66.1797 26.0205 66.5625C25.4189 66.9453 24.7171 67.1367 23.915 67.1367C23.1312 67.1367 22.4362 66.9453 21.8301 66.5625C21.224 66.1751 20.7523 65.626 20.415 64.915C20.0824 64.1995 19.9115 63.3724 19.9023 62.4336V61.7158C19.9023 60.7588 20.0687 59.9134 20.4014 59.1797C20.734 58.446 21.2035 57.8854 21.8096 57.498C22.4202 57.1061 23.1175 56.9102 23.9014 56.9102C24.6989 56.9102 25.4007 57.1038 26.0068 57.4912C26.6175 57.874 27.0869 58.4323 27.415 59.166C27.7432 59.8952 27.9072 60.7451 27.9072 61.7158V62.3447ZM26.6016 61.7021C26.6016 60.5218 26.3646 59.6172 25.8906 58.9883C25.4167 58.3548 24.7536 58.0381 23.9014 58.0381C23.0719 58.0381 22.418 58.3548 21.9395 58.9883C21.4655 59.6172 21.2217 60.4922 21.208 61.6133V62.3447C21.208 63.4886 21.4473 64.3887 21.9258 65.0449C22.4089 65.6966 23.0719 66.0225 23.915 66.0225C24.7627 66.0225 25.4189 65.7148 25.8838 65.0996C26.3486 64.4798 26.5879 63.5934 26.6016 62.4404V61.7021ZM37.5322 62.3447C37.5322 63.32 37.3682 64.1722 37.04 64.9014C36.7119 65.626 36.2471 66.1797 35.6455 66.5625C35.0439 66.9453 34.3421 67.1367 33.54 67.1367C32.7562 67.1367 32.0612 66.9453 31.4551 66.5625C30.849 66.1751 30.3773 65.626 30.04 64.915C29.7074 64.1995 29.5365 63.3724 29.5273 62.4336V61.7158C29.5273 60.7588 29.6937 59.9134 30.0264 59.1797C30.359 58.446 30.8285 57.8854 31.4346 57.498C32.0452 57.1061 32.7425 56.9102 33.5264 56.9102C34.3239 56.9102 35.0257 57.1038 35.6318 57.4912C36.2425 57.874 36.7119 58.4323 37.04 59.166C37.3682 59.8952 37.5322 60.7451 37.5322 61.7158V62.3447ZM36.2266 61.7021C36.2266 60.5218 35.9896 59.6172 35.5156 58.9883C35.0417 58.3548 34.3786 58.0381 33.5264 58.0381C32.6969 58.0381 32.043 58.3548 31.5645 58.9883C31.0905 59.6172 30.8467 60.4922 30.833 61.6133V62.3447C30.833 63.4886 31.0723 64.3887 31.5508 65.0449C32.0339 65.6966 32.6969 66.0225 33.54 66.0225C34.3877 66.0225 35.0439 65.7148 35.5088 65.0996C35.9736 64.4798 36.2129 63.5934 36.2266 62.4404V61.7021ZM43.7324 63.2539L45.4961 65.9678H44.5322L42.5156 63.3154V63.1855L44.5322 60.5264H45.4961L43.7324 63.2539ZM45.9883 63.2539L47.752 65.9678H46.7881L44.7715 63.3154V63.1855L46.7881 60.5264H47.752L45.9883 63.2539ZM55.6201 58.127H50.8213V61.1074H53.2959C54.335 61.1211 55.1462 61.3877 55.7295 61.9072C56.3128 62.4268 56.6045 63.1331 56.6045 64.0264C56.6045 64.9242 56.3105 65.6396 55.7227 66.1729C55.1348 66.7061 54.3327 66.9818 53.3164 67H49.502V57.0469H55.6201V58.127ZM50.8213 62.1875V65.9268H53.2207C53.8724 65.9268 54.3783 65.7536 54.7383 65.4072C55.1029 65.0609 55.2852 64.596 55.2852 64.0127C55.2852 63.4521 55.1097 63.0101 54.7588 62.6865C54.4124 62.363 53.918 62.1966 53.2754 62.1875H50.8213ZM59.6943 63.1035V67H58.3818V57.0469H62.0527C63.1419 57.0469 63.9941 57.3249 64.6094 57.8809C65.2292 58.4368 65.5391 59.1729 65.5391 60.0889C65.5391 61.055 65.236 61.8001 64.6299 62.3242C64.0283 62.8438 63.1647 63.1035 62.0391 63.1035H59.6943ZM59.6943 62.0303H62.0527C62.7546 62.0303 63.2923 61.8662 63.666 61.5381C64.0397 61.2054 64.2266 60.7269 64.2266 60.1025C64.2266 59.5101 64.0397 59.0361 63.666 58.6807C63.2923 58.3252 62.7796 58.1406 62.1279 58.127H59.6943V62.0303ZM73.4893 57.0469H74.8018V67H73.4893V59.3301L68.5879 67H67.2686V57.0469H68.5879V64.7168L73.4893 57.0469ZM83.8662 58.127H80.667V67H79.3613V58.127H76.1689V57.0469H83.8662V58.127ZM91.6182 57.0469H92.9307V67H91.6182V59.3301L86.7168 67H85.3975V57.0469H86.7168V64.7168L91.6182 57.0469ZM101.995 58.127H98.7959V67H97.4902V58.127H94.2979V57.0469H101.995V58.127ZM104.784 63.1035V67H103.472V57.0469H107.143C108.232 57.0469 109.084 57.3249 109.699 57.8809C110.319 58.4368 110.629 59.1729 110.629 60.0889C110.629 61.055 110.326 61.8001 109.72 62.3242C109.118 62.8438 108.255 63.1035 107.129 63.1035H104.784ZM104.784 62.0303H107.143C107.844 62.0303 108.382 61.8662 108.756 61.5381C109.13 61.2054 109.316 60.7269 109.316 60.1025C109.316 59.5101 109.13 59.0361 108.756 58.6807C108.382 58.3252 107.869 58.1406 107.218 58.127H104.784V62.0303ZM117.93 62.3994H113.616V65.9268H118.627V67H112.304V57.0469H118.559V58.127H113.616V61.3262H117.93V62.3994ZM126.536 57.0469H127.849V67H126.536V59.3301L121.635 67H120.315V57.0469H121.635V64.7168L126.536 57.0469ZM126.167 54.5723C126.167 55.1237 125.978 55.568 125.6 55.9053C125.226 56.238 124.734 56.4043 124.123 56.4043C123.512 56.4043 123.018 56.2357 122.64 55.8984C122.261 55.5612 122.072 55.1191 122.072 54.5723H123.104C123.104 54.8913 123.191 55.1419 123.364 55.3242C123.537 55.502 123.79 55.5908 124.123 55.5908C124.442 55.5908 124.69 55.502 124.868 55.3242C125.05 55.1465 125.142 54.8958 125.142 54.5723H126.167ZM139.196 69.4404H137.891V67H130.747V69.4473H129.435L129.428 65.9268H130.241C130.67 65.4437 131.009 64.7965 131.26 63.9854C131.515 63.1696 131.674 62.2764 131.738 61.3057L131.957 57.0469H137.911V65.9268H139.21L139.196 69.4404ZM131.738 65.9268H136.592V58.127H133.222L133.078 61.0527C133.019 62.1966 132.866 63.1719 132.62 63.9785C132.379 64.7852 132.085 65.4346 131.738 65.9268ZM141.281 60.5127L143.298 63.1719V63.3018L141.281 65.9609H140.311L142.074 63.2402L140.311 60.5127H141.281ZM143.667 60.5127L145.684 63.1719V63.3018L143.667 65.9609H142.696L144.46 63.2402L142.696 60.5127H143.667Z" fill="white"/>
</svg>
